<svg xmlns="http://www.w3.org/2000/svg" xmlns:svg="http://www.w3.org/2000/svg" id="svg8" width="24" height="24" version="1.1" viewBox="0 0 6.35 6.35"><metadata id="metadata5"/><path id="path1035-3" d="M 12 0 A 12 12 0 0 0 0 12 A 12 12 0 0 0 12 24 A 12 12 0 0 0 24 12 A 12 12 0 0 0 12 0 z M 13.603516 3.4414062 L 18.603516 6.2949219 L 13.603516 9.1464844 L 13.603516 7.7460938 L 8.8535156 7.7460938 L 8.8535156 4.84375 L 13.603516 4.84375 L 13.603516 3.4414062 z M 8.7285156 9.1464844 L 13.728516 12 L 8.7285156 14.853516 L 8.7285156 13.451172 L 3.9785156 13.451172 L 3.9785156 10.548828 L 8.7285156 10.548828 L 8.7285156 9.1464844 z M 13.603516 14.853516 L 18.603516 17.705078 L 13.603516 20.558594 L 13.603516 19.15625 L 8.8535156 19.15625 L 8.8535156 16.253906 L 13.603516 16.253906 L 13.603516 14.853516 z" transform="scale(0.26458331)" style="fill:#fff;fill-opacity:1;stroke:none;stroke-width:.430375;stop-color:#000"/></svg>